<?xml version="1.0" encoding="utf-8"?><svg viewBox="0 0 60 52" xmlns="http://www.w3.org/2000/svg" xmlns:xlink="http://www.w3.org/1999/xlink"><style>:root>svg{display:none}:root>svg:target{display:block}</style><svg fill="none" viewBox="0 0 60 45" id="airplane" xmlns="http://www.w3.org/2000/svg"><path d="M53.93 42.955c0 .542-.213 1.062-.592 1.446-.38.383-.894.599-1.43.599H15.49a2.012 2.012 0 0 1-1.43-.6 2.057 2.057 0 0 1-.593-1.445c0-.543.213-1.063.593-1.447.38-.383.894-.599 1.43-.599h36.417c.537 0 1.052.216 1.43.6.38.383.593.903.593 1.446ZM60 22.5v6.136c0 .543-.213 1.063-.593 1.447-.379.383-.894.599-1.43.599h-44.56a9.993 9.993 0 0 1-6.044-2.012 10.177 10.177 0 0 1-3.642-5.275L.165 11.403a4.212 4.212 0 0 1 .632-3.63c.382-.509.876-.921 1.442-1.205a4.06 4.06 0 0 1 1.82-.432h4.35a1.98 1.98 0 0 1 1.543.742l4.451 5.395h4.35l-2.276-6.878a4.132 4.132 0 0 1 .552-3.695A4.06 4.06 0 0 1 18.472.448 4.01 4.01 0 0 1 20.32 0h4.274a1.98 1.98 0 0 1 1.492.665l10.52 11.608h13.277a10.06 10.06 0 0 1 7.153 2.995A10.285 10.285 0 0 1 60 22.5Zm-4.046 0a6.196 6.196 0 0 0-1.785-4.332 6.061 6.061 0 0 0-4.285-1.804H35.722a1.982 1.982 0 0 1-1.492-.665L23.71 4.09h-3.39l3.162 9.588a2.093 2.093 0 0 1-.278 1.84 2.002 2.002 0 0 1-1.644.845h-8.093a1.981 1.981 0 0 1-1.542-.742l-4.451-5.395h-3.44L7.6 22.22a6.11 6.11 0 0 0 2.188 3.165 6 6 0 0 0 3.629 1.207h42.537V22.5Z" fill="#fff"/></svg><svg fill="none" viewBox="0 0 36 23" id="arrow" xmlns="http://www.w3.org/2000/svg"><path fill-rule="evenodd" clip-rule="evenodd" d="M.5 11.5a1.25 1.25 0 0 1 1.25-1.25h29.483l-7.868-7.865a1.252 1.252 0 0 1 1.77-1.77l10 10a1.25 1.25 0 0 1 0 1.77l-10 10a1.252 1.252 0 0 1-1.77-1.77l7.868-7.865H1.75A1.25 1.25 0 0 1 .5 11.5Z" fill="#fff"/></svg><svg fill="none" viewBox="0 0 50 45" id="bicycle" xmlns="http://www.w3.org/2000/svg"><path d="M10.417 41.755a7.158 7.158 0 0 1-5.156-2.218 7.723 7.723 0 0 1-2.136-5.354c0-2.009.768-3.935 2.136-5.355a7.158 7.158 0 0 1 5.156-2.217c1.934 0 3.788.797 5.156 2.217a7.722 7.722 0 0 1 2.135 5.355 7.723 7.723 0 0 1-2.135 5.354 7.158 7.158 0 0 1-5.156 2.218Zm0-18.39c-2.763 0-5.413 1.14-7.366 3.169C1.097 28.562 0 31.314 0 34.183c0 2.869 1.097 5.62 3.051 7.649C5.004 43.86 7.654 45 10.417 45c2.762 0 5.412-1.14 7.365-3.168 1.954-2.029 3.051-4.78 3.051-7.65 0-2.868-1.097-5.62-3.05-7.648-1.954-2.029-4.604-3.169-7.366-3.169Zm20.416-4.326h8.75v-3.895h-6.666L28.875 8.07c-.604-1.082-1.792-1.796-3.042-1.796-.979 0-1.875.411-2.5 1.082l-7.708 7.983c-.646.67-1.042 1.536-1.042 2.618 0 1.363.688 2.51 1.771 3.18l6.98 4.392v10.817h3.75V22.284l-4.688-3.57 4.833-5.084 3.604 5.408Zm8.75 22.716a7.158 7.158 0 0 1-5.156-2.218 7.723 7.723 0 0 1-2.135-5.354c0-2.009.768-3.935 2.135-5.355a7.158 7.158 0 0 1 5.156-2.217c1.934 0 3.789.797 5.156 2.217a7.722 7.722 0 0 1 2.136 5.355 7.722 7.722 0 0 1-2.136 5.354 7.157 7.157 0 0 1-5.156 2.218Zm0-18.39c-2.762 0-5.412 1.14-7.365 3.169-1.954 2.028-3.051 4.78-3.051 7.649 0 2.869 1.097 5.62 3.05 7.649C34.172 43.86 36.822 45 39.584 45c1.368 0 2.723-.28 3.987-.823a10.398 10.398 0 0 0 3.379-2.345 10.855 10.855 0 0 0 2.258-3.51 11.18 11.18 0 0 0 .793-4.14c0-1.42-.27-2.827-.793-4.139a10.855 10.855 0 0 0-2.258-3.51 10.398 10.398 0 0 0-3.38-2.344 10.083 10.083 0 0 0-3.986-.824Zm-6.25-15.577c2.084 0 3.75-1.73 3.75-3.894 0-2.163-1.666-3.894-3.75-3.894-2.083 0-3.75 1.73-3.75 3.894s1.667 3.894 3.75 3.894Z" fill="#fff"/></svg><svg fill="none" viewBox="0 0 52 52" id="calendar" xmlns="http://www.w3.org/2000/svg"><path d="M13.722 28.889a3.612 3.612 0 1 0 0-7.223 3.612 3.612 0 0 0 0 7.223Zm15.89-3.611a3.61 3.61 0 1 1-7.222 0 3.61 3.61 0 0 1 7.221 0Zm8.666 3.61a3.611 3.611 0 1 0 0-7.221 3.611 3.611 0 0 0 0 7.222Zm-20.945 7.945a3.611 3.611 0 1 1-7.222 0 3.611 3.611 0 0 1 7.222 0ZM26 40.444a3.611 3.611 0 1 0 0-7.222 3.611 3.611 0 0 0 0 7.222ZM0 9.028A9.028 9.028 0 0 1 9.028 0h33.944A9.028 9.028 0 0 1 52 9.028v33.944A9.027 9.027 0 0 1 42.972 52H9.028A9.028 9.028 0 0 1 0 42.972V9.028ZM9.028 3.61A5.417 5.417 0 0 0 3.61 9.028v2.528H48.39V9.028a5.417 5.417 0 0 0-5.417-5.417H9.028ZM3.61 42.972a5.417 5.417 0 0 0 5.417 5.417h33.944a5.417 5.417 0 0 0 5.417-5.417V15.167H3.61v27.805Z" fill="#fff"/></svg><svg fill="none" viewBox="0 0 23 24" id="facebook" xmlns="http://www.w3.org/2000/svg"><path d="M23 12.07C23 5.719 17.851.57 11.5.57S0 5.719 0 12.07c0 5.74 4.205 10.497 9.703 11.36v-8.036h-2.92V12.07h2.92V9.536c0-2.882 1.717-4.474 4.344-4.474 1.258 0 2.574.225 2.574.225v2.83h-1.45c-1.429 0-1.874.886-1.874 1.796v2.157h3.19l-.51 3.324h-2.68v8.036C18.795 22.567 23 17.81 23 12.07Z" fill="#fff"/></svg><svg fill="none" viewBox="0 0 23 24" id="google" xmlns="http://www.w3.org/2000/svg"><path fill-rule="evenodd" clip-rule="evenodd" d="M22.54 12.261c0-.815-.073-1.6-.21-2.352H11.5v4.448h6.19a5.29 5.29 0 0 1-2.296 3.471v2.886h3.717c2.174-2.002 3.429-4.95 3.429-8.453Z" fill="#4285F4"/><path fill-rule="evenodd" clip-rule="evenodd" d="M11.5 23.5c3.105 0 5.708-1.03 7.61-2.786l-3.716-2.886c-1.03.69-2.347 1.098-3.894 1.098-2.995 0-5.53-2.023-6.435-4.741H1.223v2.98A11.496 11.496 0 0 0 11.5 23.5Z" fill="#34A853"/><path fill-rule="evenodd" clip-rule="evenodd" d="M5.065 14.185A6.913 6.913 0 0 1 4.705 12c0-.758.13-1.495.36-2.185v-2.98H1.223A11.496 11.496 0 0 0 0 12c0 1.856.444 3.612 1.223 5.165l3.842-2.98Z" fill="#FBBC05"/><path fill-rule="evenodd" clip-rule="evenodd" d="M11.5 5.074c1.688 0 3.204.58 4.396 1.72l3.299-3.299C17.203 1.64 14.6.5 11.5.5A11.496 11.496 0 0 0 1.223 6.835l3.842 2.98c.905-2.718 3.44-4.741 6.435-4.741Z" fill="#EA4335"/></svg><svg fill="none" viewBox="0 0 32 32" id="instagram" xmlns="http://www.w3.org/2000/svg"><path fill-rule="evenodd" clip-rule="evenodd" d="M9.468.495c1.645-.076 2.17-.093 6.359-.093 4.19 0 4.714.019 6.358.093 1.643.074 2.765.336 3.747.716a7.59 7.59 0 0 1 2.731 1.781c.785.77 1.391 1.701 1.778 2.73.382.982.642 2.104.718 3.744.076 1.648.093 2.173.093 6.361 0 4.19-.018 4.714-.093 6.36-.074 1.64-.336 2.762-.718 3.743a7.567 7.567 0 0 1-1.778 2.733 7.564 7.564 0 0 1-2.731 1.778c-.982.382-2.104.643-3.744.718-1.647.076-2.171.093-6.361.093-4.19 0-4.714-.018-6.36-.093-1.64-.074-2.762-.336-3.743-.718a7.567 7.567 0 0 1-2.733-1.778 7.56 7.56 0 0 1-1.78-2.731c-.38-.982-.64-2.104-.716-3.744-.076-1.648-.093-2.172-.093-6.36 0-4.19.018-4.715.093-6.359.074-1.643.336-2.765.716-3.747a7.567 7.567 0 0 1 1.781-2.731 7.561 7.561 0 0 1 2.73-1.78c.982-.38 2.104-.64 3.744-.716h.002ZM22.06 3.27c-1.627-.074-2.115-.09-6.233-.09-4.118 0-4.606.016-6.233.09-1.505.07-2.32.32-2.865.532a4.79 4.79 0 0 0-1.774 1.152A4.784 4.784 0 0 0 3.803 6.73c-.212.544-.463 1.36-.532 2.865-.074 1.627-.09 2.115-.09 6.233 0 4.118.016 4.606.09 6.233.069 1.505.32 2.32.532 2.865.247.669.64 1.276 1.152 1.774A4.787 4.787 0 0 0 6.73 27.85c.544.212 1.36.463 2.865.532 1.627.074 2.113.09 6.233.09 4.12 0 4.606-.016 6.233-.09 1.505-.069 2.32-.32 2.865-.532a4.79 4.79 0 0 0 1.774-1.152 4.789 4.789 0 0 0 1.152-1.774c.212-.544.463-1.36.532-2.865.074-1.627.09-2.114.09-6.233 0-4.118-.016-4.606-.09-6.233-.069-1.505-.32-2.32-.532-2.865A4.79 4.79 0 0 0 26.7 4.955a4.786 4.786 0 0 0-1.774-1.152c-.544-.212-1.36-.463-2.865-.532Zm-8.203 17.311a5.145 5.145 0 1 0 3.704-9.6 5.146 5.146 0 0 0-3.704 9.6ZM10.22 10.221a7.928 7.928 0 1 1 11.212 11.212A7.928 7.928 0 0 1 10.22 10.22Zm15.293-1.142a1.875 1.875 0 1 0-2.574-2.727 1.875 1.875 0 0 0 2.574 2.727Z" fill="#F8F8F8"/></svg><svg fill="none" viewBox="0 0 30 30" id="logo" xmlns="http://www.w3.org/2000/svg"><path d="M2.591 7.832c.242-.307.56-.723.816-1.02.763-.82.862-.928 1.557-1.535.207-.16.451-.352.69-.533-1.764 1.412-1.988 2.976-.37 3.942-.002 0-.002 0-.002.003 2.263 1.29 7.224 1.011 11.138-.642 3.791-1.6 5.19-3.888 3.32-5.248-1.643-.292-3.602-.325-5.674-.063l-.215-.336.178-.557c1.219-.104 2.376-.08 3.375.082.242.039.56.105.798.153.46.106.71.17 1.01.26.306.087.568.173 1.024.333.447.167.64.242.998.41.4.173.79.37 1.166.587 2.982 1.773 1.128 5.01-4.133 7.227-5.246 2.21-11.93 2.558-14.927.805 0-.002-.005-.005-.013-.007h.006c-1.636-.98-1.808-2.403-.742-3.86Zm13.65 12.4-.043-1.992-1.497-1.575c-4.946 1.06-9.808.832-12.511-.674-.01-.01-.032-.02-.041-.03C.619 15.07.24 13.92.355 12.67c-.358 1.829-.387 2.489-.335 4.054.063.98.662 1.884 1.866 2.596l.009.01c2.882 1.695 8.886 2.063 14.345.903Zm6.243 2.282c-6.981 2.649-15.718 2.805-19.514.354.41.947.968 1.83 1.655 2.622 3.483 2.25 11.503 2.106 17.908-.325 3.748-1.421 6.114-3.313 6.735-5.085l.174-.534c.414-1.352.492-2.479.558-3.481-.075 2.176-2.785 4.651-7.516 6.449Zm-15.41 5.101c.219.198.909.999 4.404 1.884.944.197 3.323.831 7.717-.09l.026-.379-.347-.515c-4.077.912-8.605.607-11.8-.9ZM17.16 11.854l3.712 2.661s.794.541.045.921c-.747.377-2.664 1.298-2.664 1.298l-1.894-.669-.95.4 1.676 1.376.013 2.142.985-.414.652-1.809s2.005-.73 2.8-1.005c.8-.269.693.651.693.651l-.394 4.389 1.308-.55 2.154-5.921s1.142-.525 1.945-.986c.802-.462 1.077-1.227 1.077-1.227s-.782-.319-1.683-.062c-.901.254-2.076.706-2.076.706l-6.095-2.449-1.304.548Zm-7.853-8.42 2.52 1.898.688-.097-1.371-1.704s-.299-.352.103-.436c.404-.085 1.427-.283 1.427-.283l.769.582.518-.073-.587-.882.31-.979-.501.069-.594.745s-1.04.092-1.45.125c-.413.03-.236-.389-.236-.389l.79-2.01-.692.096-1.824 2.511s-.607.105-1.047.224c-.442.118-.674.44-.674.44s.323.248.78.239c.46-.009 1.071-.076 1.071-.076ZM21.762 27.83l-1.63-.806-.376.124.966.817s.206.166-.01.255c-.217.088-.77.303-.77.303l-.455-.193-.271.093.38.382-.038.559.283-.092.211-.454s.574-.162.803-.219c.227-.059.175.194.175.194L20.815 30l.377-.124.738-1.595s.326-.121.56-.232a.716.716 0 0 0 .327-.316s-.208-.108-.464-.054c-.258.051-.59.152-.59.152Z" fill="#fff"/></svg><svg fill="none" viewBox="0 0 33 27" id="twitter" xmlns="http://www.w3.org/2000/svg"><path d="M32.461 3.923a13.08 13.08 0 0 1-3.75 1.028 6.549 6.549 0 0 0 2.871-3.615 13.041 13.041 0 0 1-4.148 1.584 6.534 6.534 0 0 0-11.13 5.96A18.55 18.55 0 0 1 2.838 2.054a6.53 6.53 0 0 0-.884 3.284 6.535 6.535 0 0 0 2.906 5.438 6.516 6.516 0 0 1-2.959-.818v.084a6.534 6.534 0 0 0 5.24 6.406 6.58 6.58 0 0 1-2.95.112 6.535 6.535 0 0 0 6.102 4.535 13.108 13.108 0 0 1-8.113 2.797c-.521 0-1.042-.03-1.56-.091a18.474 18.474 0 0 0 10.013 2.935c12.017 0 18.587-9.953 18.587-18.585 0-.28-.007-.564-.02-.845a13.28 13.28 0 0 0 3.257-3.379l.003-.004Z" fill="#F8F8F8"/></svg><svg fill="none" viewBox="0 0 33 28" id="youtube" xmlns="http://www.w3.org/2000/svg"><path d="M24.894 2.609H8.067a5.609 5.609 0 0 0-5.609 5.609v11.218a5.609 5.609 0 0 0 5.61 5.609h16.826a5.609 5.609 0 0 0 5.61-5.61V8.219a5.609 5.609 0 0 0-5.61-5.61Z" stroke="#F8F8F8" stroke-width="4.167" stroke-linecap="round" stroke-linejoin="round"/></svg></svg>